<svg width="48" height="48" viewBox="0 0 48 48" fill="none" xmlns="http://www.w3.org/2000/svg">
<path fill-rule="evenodd" clip-rule="evenodd" d="M32.3322 1.03125L21.6379 5.60278V43.499H24.8938V35.5328L24.1403 35.6046C23.8321 35.6336 23.5586 35.4074 23.5295 35.0992C23.5005 34.7909 23.7267 34.5174 24.0349 34.4883L29.8298 33.9368C30.1381 33.9076 30.4115 34.1339 30.4407 34.4422C30.4698 34.7504 30.2435 35.0239 29.9353 35.0529L29.0764 35.1347V43.4989H43.0265V5.60278L32.3322 1.03125ZM25.8332 30.4268L23.8117 30.6203V26.7144L25.8332 26.4027V30.4268ZM25.8338 24.0822L23.8118 24.4621V20.5469L25.8338 20.0485V24.0822ZM25.8338 17.7345L23.8118 18.3008V14.3857L25.8338 13.7008V17.7345ZM25.8338 11.3835L23.8118 12.1333V8.47566L25.8345 7.60866L25.8338 11.3835ZM30.1584 30.0147L27.8806 30.2331V26.0826L30.1584 25.7307V30.0147ZM30.1584 23.2643L27.8806 23.6931V19.5458L30.1584 18.9837V23.2642V23.2643ZM30.1584 16.5173L27.8806 17.1562V13.0057L30.1584 12.2333V16.5173ZM30.1584 9.77034L27.8806 10.6194L27.8799 6.73228L30.1583 5.75475V9.77034H30.1584ZM35.5683 36.8438C35.5683 37.1545 35.3165 37.4063 35.0058 37.4063C34.6952 37.4063 34.4433 37.1545 34.4433 36.8438V5.94441C34.4433 5.63372 34.6952 5.38191 35.0058 5.38191C35.3165 5.38191 35.5683 5.63372 35.5683 5.94441V36.844V36.8438ZM38.2419 36.8438C38.2419 37.1545 37.9901 37.4063 37.6794 37.4063C37.3687 37.4063 37.1169 37.1545 37.1169 36.8438V7.08731C37.1169 6.77663 37.3688 6.52481 37.6794 6.52481C37.99 6.52481 38.2419 6.77672 38.2419 7.08731V36.844V36.8438ZM40.9155 36.8438C40.9155 37.1545 40.6637 37.4063 40.353 37.4063C40.0423 37.4063 39.7905 37.1545 39.7905 36.8438V8.23022C39.7905 7.91953 40.0423 7.66772 40.353 7.66772C40.6637 7.66772 40.9155 7.91953 40.9155 8.23022V36.844V36.8438ZM16.1099 12.0718L4.97369 16.8323V43.499H8.4505V37.3141L7.69703 37.3858C7.38878 37.4149 7.11531 37.1887 7.08625 36.8804C7.05719 36.5722 7.28341 36.2987 7.59166 36.2696L13.3865 35.7181C13.6948 35.689 13.9683 35.9152 13.9974 36.2235C14.0265 36.5317 13.8003 36.8052 13.492 36.8344L12.6332 36.9161V43.4991H20.513V13.954L16.1099 12.0718ZM8.99828 31.5599L7.35306 31.7852V28.6183L8.99828 28.2803V31.5599ZM8.99828 26.3979L7.35306 26.8026V23.6356L8.99828 23.1184V26.3979ZM8.99885 21.234L7.35316 21.8159V18.8581L8.99941 18.1647L8.99885 21.234ZM12.5759 31.0659L10.6811 31.327V27.9354L12.5759 27.5444V31.0659ZM12.5759 25.5145L10.6811 25.9813V22.5877L12.5759 21.9889V25.5145ZM12.5759 19.9611L10.6805 20.6357V17.4576L12.5759 16.6544V19.9611ZM1.08325 44.624H46.9169V46.9688H1.08325V44.624Z" fill="#FFEA2E"/>
</svg>
